<svg width="491" height="83" viewBox="0 0 491 83" fill="none" xmlns="http://www.w3.org/2000/svg">
<path d="M15.47 48.2803C12.87 49.6203 9.53002 49.9303 8.43002 49.9303C2.68002 49.9303 0 45.4903 0 41.6603C0 37.8303 2.76 32.7803 9.16 32.7803C11.97 32.7803 13.83 33.6703 14.39 33.6703C14.63 33.6703 14.84 33.6203 14.99 33.4903H15.36V37.7403H14.83C14.12 34.4603 11.89 33.4303 9.45001 33.4303C4.83001 33.4303 2.46002 37.2603 2.46002 41.4903C2.46002 46.8703 6.24001 49.2603 9.26001 49.2603C10.47 49.2603 11.81 49.0003 13.28 48.2603V44.9503C13.28 43.4503 12.75 42.9503 11.18 42.9503H10.21V42.4803H17.3V42.9503C15.99 43.0303 15.46 43.4803 15.46 44.6003V48.2503L15.47 48.2803Z" fill="#313945"/>
<path d="M28.8003 49.94C23.6503 49.94 19.3203 46.63 19.3203 41.72C19.3203 36.49 23.3403 32.79 28.9303 32.79C33.8903 32.79 38.1503 36.18 38.1503 40.9C38.1503 46.2 33.9003 49.93 28.8003 49.93V49.94ZM28.2503 33.45C23.6303 33.45 21.7903 37.76 21.7903 40.91C21.7903 45.82 25.1203 49.29 29.3503 49.29C33.5803 49.29 35.6803 45.51 35.6803 41.78C35.6803 36.9 32.5803 33.46 28.2503 33.46V33.45Z" fill="#313945"/>
<path d="M42.7208 35.9702C42.7208 34.4702 42.5408 33.6902 40.7008 33.6902H39.7808V33.1902C40.5208 33.1602 42.3308 33.0602 43.0908 33.0302C44.5308 32.9802 46.5308 32.9502 47.0308 32.9502C49.3408 32.9502 51.3608 33.2902 52.3108 33.9702C53.3908 34.7302 53.9108 35.6202 53.9108 36.8802C53.9108 38.3802 52.6808 39.7702 50.9208 40.0802V40.1302C53.3908 40.8702 54.8308 42.4702 54.8308 44.5202C54.8308 46.5702 53.3908 49.5102 49.1608 49.5102H39.5508V49.0102H40.1508C42.3008 49.0102 42.7208 48.5102 42.7208 46.8602V35.9602V35.9702ZM44.9008 40.0102H47.7608C50.2808 40.0102 51.5408 39.0102 51.5408 36.9602C51.5408 35.1202 50.4408 33.4402 47.2108 33.4402C46.6308 33.4402 45.5608 33.4902 44.9008 33.5202V40.0102ZM44.9008 46.1002C44.9008 48.1002 45.6908 48.8102 47.8908 48.8102C51.3608 48.8102 52.3508 46.6602 52.3508 44.6102C52.3508 42.5602 50.8008 40.5102 47.7308 40.5102H44.8908V46.1002H44.9008Z" fill="#313945"/>
<path d="M63.7804 49.5207H57.4004V49.0207C59.0304 48.9407 59.3704 48.5207 59.3704 46.7607V35.5707C59.3704 34.1507 58.8704 33.7607 57.4004 33.6807V33.1807H63.7804V33.6807C62.1304 33.6807 61.5504 34.0507 61.5504 35.8107V46.9407C61.5504 48.4907 61.9704 49.0107 63.7804 49.0107V49.5107V49.5207Z" fill="#313945"/>
<path d="M77.149 43.6107H76.649C76.439 41.7507 75.939 41.5407 74.859 41.5407H70.4191V47.1307C70.4191 48.3407 70.8691 48.5707 71.8391 48.5707H75.879C77.719 48.5707 78.269 47.8607 78.929 45.6007H79.399L78.9791 49.5107H65.0391V49.0107H65.7791C67.8791 49.0107 68.249 48.4307 68.249 46.8607V35.7807C68.249 34.3107 67.909 33.6807 66.149 33.6807H65.569V33.1807H78.1691L78.379 36.8307H77.9091C77.5691 34.6007 76.9091 34.1207 75.9691 34.1207H70.429V40.5807H75.129C76.079 40.5807 76.519 40.1307 76.649 38.6107H77.149V43.6007V43.6107Z" fill="#313945"/>
<path d="M85.7808 47.0504C85.7808 48.6304 86.4108 49.0204 87.8808 49.0204H88.4808V49.5204H81.0508V49.0204H81.5008C83.0508 49.0204 83.6008 48.6004 83.6008 46.8404V35.7804C83.6008 34.1504 83.1508 33.6804 81.6308 33.6804H81.0508V33.1804C81.6808 33.1804 83.2808 33.0804 84.3608 33.0204C85.4408 32.9704 85.9608 32.9404 87.6708 32.9404C92.5308 32.9404 94.7108 34.9404 94.7108 37.6104C94.7108 39.5804 93.3708 41.2304 91.2208 41.8604C92.1908 42.6204 92.9808 43.3604 94.2108 44.5904L96.2808 46.6604C97.8308 48.2104 99.4308 49.1804 101.451 49.3104V49.7804C96.8508 49.9904 95.6708 48.9904 93.3308 46.6604L91.6008 44.9304C90.4408 43.7704 89.5308 43.0104 88.8908 42.5904C88.2308 42.6204 87.8108 42.6404 87.1008 42.6404C86.5208 42.6404 86.1808 42.6104 85.7608 42.5904V47.0304L85.7808 47.0504ZM85.7808 42.1104C86.4108 42.1904 86.8008 42.1604 87.4108 42.1604C90.3308 42.1604 92.2408 40.9304 92.2408 37.7704C92.2408 35.3304 91.1408 33.4404 87.0908 33.4404C86.5908 33.4404 86.2508 33.4404 85.7808 33.4904V42.1004V42.1104Z" fill="#313945"/>
<path d="M119.45 49.7007L105.85 35.4707V46.7407C105.85 48.6307 106.27 49.0207 108.5 49.0207V49.5207H102.41V49.0207H102.52C104.15 49.0207 104.67 48.4707 104.67 47.2607V34.3407C104.07 33.9207 103.38 33.7107 102.46 33.6807V33.1807H106.58L118.95 46.0707V35.6207C118.95 34.0207 118.48 33.7307 116.38 33.6807V33.1807H122.52V33.6807C120.55 33.6807 120.13 34.0207 120.13 35.0507V49.7007H119.45Z" fill="#313945"/>
<path d="M133.839 49.94C128.689 49.94 124.359 46.63 124.359 41.72C124.359 36.49 128.379 32.79 133.969 32.79C138.929 32.79 143.189 36.18 143.189 40.9C143.189 46.2 138.939 49.93 133.839 49.93V49.94ZM133.289 33.45C128.669 33.45 126.829 37.76 126.829 40.91C126.829 45.82 130.159 49.29 134.389 49.29C138.619 49.29 140.719 45.51 140.719 41.78C140.719 36.9 137.619 33.46 133.289 33.46V33.45Z" fill="#313945"/>
<path d="M154.79 35.8104C154.79 34.1004 154.34 33.6804 152.79 33.6804H152.26V33.1804C153.23 33.1304 154.52 33.0804 155.96 33.0204C157.4 32.9704 159.01 32.9404 160.37 32.9404C167.3 32.9404 170.37 36.4604 170.37 40.7904C170.37 44.7604 167.3 49.5104 160.65 49.5104H152.25V49.0104H152.7C154.12 49.0104 154.77 48.6204 154.77 47.0904V35.8004L154.79 35.8104ZM156.97 47.5704C156.97 48.6504 157.05 49.0104 159.12 49.0104C162.64 49.0104 164.11 48.5104 165.74 46.8804C166.71 45.9304 167.92 43.9104 167.92 41.2104C167.92 39.2704 167.37 37.1104 165.82 35.5604C164.61 34.3504 162.75 33.4304 159.07 33.4304C157.99 33.4304 157.28 33.5104 156.97 33.5304V47.5504V47.5704Z" fill="#313945"/>
<path d="M184.02 43.6107H183.52C183.31 41.7507 182.81 41.5407 181.73 41.5407H177.29V47.1307C177.29 48.3407 177.74 48.5707 178.71 48.5707H182.75C184.59 48.5707 185.14 47.8607 185.8 45.6007H186.27L185.85 49.5107H171.91V49.0107H172.65C174.75 49.0107 175.12 48.4307 175.12 46.8607V35.7807C175.12 34.3107 174.78 33.6807 173.02 33.6807H172.44V33.1807H185.05L185.26 36.8307H184.79C184.45 34.6007 183.79 34.1207 182.85 34.1207H177.31V40.5807H182.01C182.96 40.5807 183.4 40.1307 183.53 38.6107H184.03V43.6007L184.02 43.6107Z" fill="#313945"/>
<path d="M249.97 0L251.12 2.32L253.69 2.7L251.83 4.51L252.27 7.07L249.97 5.86L247.67 7.07L248.12 4.51L246.26 2.7L248.83 2.32L249.97 0Z" fill="#313945"/>
<path d="M266.831 4.30957L267.991 6.63957L270.551 6.99957L268.691 8.80957L269.131 11.3596L266.831 10.1596L264.551 11.3596L264.971 8.80957L263.121 6.99957L265.691 6.63957L266.831 4.30957Z" fill="#313945"/>
<path d="M279.771 14.7695L280.911 17.0895L283.481 17.4695L281.621 19.2695L282.051 21.8295L279.771 20.6195L277.471 21.8295L277.911 19.2695L276.051 17.4695L278.611 17.0895L279.771 14.7695Z" fill="#313945"/>
<path d="M287.141 29.7598L288.301 32.0798L290.861 32.4598L289.001 34.2598L289.441 36.8098L287.141 35.6098L284.861 36.8098L285.301 34.2598L283.441 32.4598L286.001 32.0798L287.141 29.7598Z" fill="#313945"/>
<path d="M287.431 47.1504L288.591 49.4704L291.141 49.8504L289.291 51.6504L289.731 54.2004L287.431 53.0004L285.141 54.2004L285.571 51.6504L283.721 49.8504L286.291 49.4704L287.431 47.1504Z" fill="#313945"/>
<path d="M279.78 62.2002L280.92 64.5202L283.5 64.8902L281.64 66.7102L282.08 69.2502L279.78 68.0402L277.48 69.2502L277.92 66.7102L276.07 64.8902L278.64 64.5202L279.78 62.2002Z" fill="#313945"/>
<path d="M266.921 72.6699L268.071 74.9899L270.621 75.3699L268.771 77.1699L269.211 79.7299L266.921 78.5199L264.621 79.7299L265.071 77.1699L263.211 75.3699L265.771 74.9899L266.921 72.6699Z" fill="#313945"/>
<path d="M249.96 76.3398L251.12 78.6698L253.67 79.0398L251.82 80.8498L252.26 83.4099L249.96 82.1998L247.67 83.4099L248.1 80.8498L246.25 79.0398L248.82 78.6698L249.96 76.3398Z" fill="#313945"/>
<path d="M233.392 72.6797L234.542 75.0097L237.102 75.3797L235.252 77.1897L235.692 79.7297L233.392 78.5397L231.092 79.7297L231.532 77.1897L229.672 75.3797L232.242 75.0097L233.392 72.6797Z" fill="#313945"/>
<path d="M220.521 62.21L221.661 64.54L224.231 64.91L222.371 66.72L222.821 69.28L220.521 68.07L218.231 69.28L218.661 66.72L216.801 64.91L219.371 64.54L220.521 62.21Z" fill="#313945"/>
<path d="M212.851 47.2598L214.001 49.5698L216.571 49.9498L214.711 51.7598L215.151 54.3198L212.851 53.1098L210.561 54.3198L211.001 51.7598L209.141 49.9498L211.711 49.5698L212.851 47.2598Z" fill="#313945"/>
<path d="M212.851 29.7598L214.001 32.0798L216.571 32.4598L214.711 34.2598L215.151 36.8098L212.851 35.6098L210.561 36.8098L211.001 34.2598L209.141 32.4598L211.711 32.0798L212.851 29.7598Z" fill="#313945"/>
<path d="M220.13 14.79L221.28 17.12L223.84 17.48L221.98 19.3L222.43 21.85L220.13 20.64L217.84 21.85L218.27 19.3L216.41 17.48L218.98 17.12L220.13 14.79Z" fill="#313945"/>
<path d="M233.36 4.30957L234.52 6.63957L237.08 7.00957L235.22 8.81957L235.66 11.3796L233.36 10.1696L231.08 11.3796L231.52 8.81957L229.66 7.00957L232.22 6.63957L233.36 4.30957Z" fill="#313945"/>
<path d="M269.64 47.7305C269.47 47.7305 269.32 47.8605 269.32 48.0305C269.32 48.0305 269.32 48.0305 269.32 48.0405C269.32 48.2205 269.47 48.3605 269.64 48.3605H269.72C269.89 48.3605 270.03 48.2105 270.03 48.0405C270.03 47.8705 269.89 47.7305 269.72 47.7305H269.64Z" fill="#313945"/>
<path d="M273.171 43.2798C272.891 43.3198 272.631 43.4198 272.391 43.5698C272.261 43.6598 272.111 43.7198 271.951 43.7498C272.041 43.5598 272.081 43.3498 272.071 43.1398V41.6098C272.071 41.6098 271.881 42.1898 271.601 42.3198C271.321 42.4498 270.781 42.6598 270.691 42.8498C270.601 43.0398 270.201 43.0398 270.051 43.6198C270.011 43.8698 269.931 44.1198 269.821 44.3498L269.691 44.5398C269.881 43.6898 269.991 42.8198 270.011 41.9398V41.5398C270.131 41.4398 270.241 41.3298 270.351 41.2198C270.471 41.0298 271.961 40.5198 272.171 40.1198C272.381 39.7198 272.481 39.4598 272.591 39.2898C272.731 38.9498 272.811 38.5798 272.821 38.2098C272.801 37.7098 272.751 37.2198 272.651 36.7298C272.421 36.8498 272.211 36.9998 272.041 37.1998C271.991 37.2698 271.941 37.3198 271.871 37.3698C271.901 37.2298 271.901 37.0898 271.871 36.9498C271.661 36.4398 271.341 35.7598 271.341 35.7598C271.341 35.7598 271.071 36.1898 270.911 36.4598C270.661 36.9498 270.421 36.9898 270.381 37.1898C270.341 37.3898 270.041 37.5298 269.941 37.9298C269.911 38.0298 269.881 38.1398 269.861 38.2398C269.741 37.3798 269.601 36.5998 269.441 35.8998C269.441 35.6798 269.601 35.1898 269.791 35.0298C270.051 34.7698 270.171 34.4198 270.131 34.0598C270.121 33.7498 270.071 33.4498 269.991 33.1498C269.991 32.9198 269.211 31.8498 269.281 31.6198L268.771 32.7498C268.411 32.3898 268.001 32.0798 267.551 31.8298L266.991 30.8698V30.3798C267.071 30.0498 267.071 29.6998 266.991 29.3698C266.901 29.1398 266.701 28.9398 266.601 28.6398C266.551 28.3698 266.411 28.1198 266.211 27.9298L265.641 27.3498C265.641 27.3498 265.541 27.7798 265.461 28.1298C265.381 28.0898 265.301 28.0498 265.211 28.0298C265.101 27.9898 264.991 27.9398 264.901 27.8698C264.731 27.6498 264.561 27.4298 264.411 27.2498C264.501 27.1898 264.561 27.0998 264.571 26.9898C264.571 26.8098 264.421 26.6698 264.251 26.6698C264.081 26.6698 263.941 26.8098 263.941 26.9798C263.941 26.9798 263.941 26.9798 263.941 26.9898C263.941 27.1598 264.081 27.2998 264.251 27.2998C264.311 27.3098 264.361 27.3098 264.421 27.2998C264.421 27.3598 264.591 27.5598 264.781 27.8598C264.621 27.7698 264.471 27.6898 264.401 27.6398C264.331 27.5898 264.211 28.5098 264.491 29.0398H264.361C264.001 28.9498 263.621 28.9098 263.241 28.9398C263.381 28.9398 263.731 29.3198 263.771 29.5098C263.891 29.7998 264.091 30.0598 264.351 30.2398C264.611 30.3798 264.851 30.5598 265.061 30.7698C265.441 30.9598 265.861 31.0398 266.281 30.9998C266.411 31.0798 266.561 31.1198 266.711 31.0998C266.881 31.4098 267.061 31.7198 267.241 32.0398C267.161 32.3098 267.121 32.5898 267.121 32.8698L266.071 32.6398C266.121 33.0698 266.261 33.4798 266.491 33.8498C266.441 33.8898 266.411 33.9498 266.401 34.0098C266.371 34.1098 266.371 34.2098 266.401 34.3098C266.521 34.4798 266.681 34.6098 266.871 34.6898L262.971 37.4698C263.161 34.0698 263.021 30.6498 262.581 27.2698C263.061 27.0898 262.931 26.8698 262.931 26.8698L262.751 26.3998C262.751 26.3998 262.851 26.4098 262.891 26.3998C262.981 26.3998 263.061 26.3598 263.121 26.2998C263.251 26.1598 263.251 25.9498 263.121 25.8198C263.021 25.7398 262.921 25.6598 262.811 25.5998L263.381 25.5198L263.701 24.1598L262.401 24.6098V25.1798C262.301 25.0798 262.191 24.9898 262.061 24.9298C261.921 24.7898 261.701 24.7898 261.571 24.9298C261.441 25.0698 261.441 25.2798 261.571 25.4198C261.711 25.5398 261.881 25.6298 262.061 25.6698L255.421 32.9798L251.021 25.6198C251.101 24.0598 250.881 22.5098 250.371 21.0398C250.431 20.7998 250.451 20.5498 250.451 20.2998C250.651 20.2398 250.811 20.0798 250.871 19.8798C250.871 19.8798 250.551 19.4898 250.351 19.3098H250.601C250.791 19.3098 250.961 19.1798 250.981 18.9898C250.971 18.7998 250.811 18.6598 250.621 18.6698C250.501 18.6498 250.371 18.6498 250.241 18.6698L250.601 18.2298L249.911 17.0098L249.231 18.2398L249.591 18.6698C249.471 18.6498 249.351 18.6498 249.231 18.6698C249.121 18.6698 249.021 18.7098 248.941 18.7898C248.831 18.8998 248.821 19.0798 248.931 19.1898C248.931 19.1898 248.931 19.1898 248.941 19.1998C249.021 19.2798 249.121 19.3198 249.231 19.3198H249.421C249.291 19.4398 249.181 19.5698 249.071 19.7098C249.031 19.7398 248.991 19.7698 248.971 19.8098C249.011 19.9098 249.081 19.9898 249.161 20.0598C248.061 22.0298 247.701 24.3398 248.131 26.5498L244.321 32.9098L237.661 25.5698C237.861 25.5398 238.041 25.4498 238.181 25.3098C238.261 25.2398 238.311 25.1398 238.321 25.0398C238.321 24.9598 238.291 24.8798 238.241 24.8198C238.181 24.7598 238.111 24.7298 238.031 24.7298C237.931 24.7298 237.821 24.7698 237.741 24.8298C237.651 24.9098 237.571 25.0098 237.511 25.1198V24.5498L236.211 24.0998L236.531 25.4598L237.101 25.5398C236.991 25.5998 236.881 25.6698 236.791 25.7598C236.711 25.8298 236.671 25.9298 236.661 26.0298C236.661 26.1098 236.691 26.1798 236.741 26.2398C236.791 26.2998 236.871 26.3398 236.951 26.3398C237.001 26.3498 237.051 26.3498 237.111 26.3398L236.931 26.8098C236.931 26.8098 236.801 27.0298 237.281 27.2098C236.831 30.5898 236.701 33.9998 236.891 37.4098L232.931 34.6298C233.121 34.5598 233.281 34.4198 233.381 34.2498C233.431 34.1898 233.461 34.1098 233.471 34.0298C233.471 33.9598 233.431 33.8898 233.381 33.8398C233.611 33.4698 233.761 33.0598 233.811 32.6298L232.761 32.8598C232.761 32.5798 232.721 32.2998 232.641 32.0298C232.811 31.7198 232.991 31.4098 233.171 31.0898C233.321 31.0998 233.461 31.0698 233.591 30.9898C234.011 31.0298 234.441 30.9498 234.811 30.7598C235.031 30.5498 235.271 30.3698 235.541 30.2298C235.781 30.0298 235.961 29.7798 236.071 29.4898C236.071 29.2998 236.451 28.9198 236.591 28.9198C236.221 28.8898 235.851 28.9198 235.491 29.0198H235.351C235.651 28.4898 235.571 27.5398 235.451 27.6198L235.071 27.8398L235.421 27.2798C235.481 27.2898 235.531 27.2898 235.591 27.2798C235.761 27.2298 235.851 27.0598 235.811 26.8998C235.771 26.7398 235.591 26.6398 235.431 26.6798C235.271 26.7198 235.171 26.8998 235.211 27.0598C235.241 27.1598 235.321 27.2498 235.431 27.2798C235.271 27.4598 235.121 27.6798 234.951 27.8998C234.851 27.9598 234.751 28.0098 234.641 28.0598C234.561 28.0898 234.471 28.1198 234.391 28.1598C234.301 27.8098 234.211 27.3798 234.211 27.3798L233.631 27.9598C233.441 28.1598 233.301 28.3998 233.241 28.6698C233.131 28.9198 233.001 29.1698 232.851 29.3998C232.771 29.7298 232.771 30.0798 232.851 30.4098V30.8998L232.291 31.8598C231.851 32.1198 231.441 32.4298 231.071 32.7798C230.941 32.4698 230.581 31.6498 230.581 31.6498C230.581 31.9398 229.901 32.9498 229.851 33.1798C229.771 33.4798 229.731 33.7798 229.721 34.0898C229.671 34.4498 229.791 34.8098 230.041 35.0598C230.251 35.2198 230.331 35.7098 230.391 35.9298C230.231 36.6298 230.091 37.4098 229.991 38.2698C229.971 38.1598 229.941 38.0598 229.911 37.9598C229.791 37.5598 229.491 37.4298 229.471 37.2198C229.451 37.0098 229.171 36.9898 228.921 36.4898C228.761 36.2198 228.491 35.7898 228.491 35.7898C228.491 35.7898 228.181 36.4798 227.971 36.9798C227.921 37.1098 227.891 37.2498 227.891 37.3998C227.831 37.3498 227.771 37.2898 227.721 37.2298C227.551 37.0398 227.351 36.8798 227.121 36.7598C227.021 37.2498 226.961 37.7398 226.951 38.2398C226.961 38.6098 227.041 38.9798 227.181 39.3198C227.271 39.4898 227.391 39.7598 227.601 40.1498C227.811 40.5398 229.291 41.0598 229.421 41.2498C229.521 41.3698 229.631 41.4698 229.741 41.5698V41.9698C229.761 42.8398 229.861 43.7098 230.051 44.5698V44.3898C229.941 44.1598 229.861 43.9198 229.821 43.6598C229.661 43.0898 229.271 43.0898 229.181 42.8898C229.091 42.6898 228.561 42.4998 228.261 42.3598C227.961 42.2198 227.791 41.6498 227.791 41.6498V43.1798C227.781 43.3898 227.821 43.5998 227.911 43.7898C227.751 43.7598 227.591 43.6998 227.461 43.6098C227.231 43.4598 226.971 43.3698 226.691 43.3198C226.751 43.8298 226.851 44.3298 226.981 44.8298C227.101 45.1998 227.301 45.5498 227.561 45.8398C227.691 45.9798 227.881 46.2198 228.221 46.5498C228.901 46.8998 229.631 47.1498 230.391 47.2898C230.671 47.3698 230.911 47.5498 231.071 47.7998C231.071 47.9198 231.131 48.0298 231.161 48.1098C231.261 48.5298 231.411 49.0298 231.581 49.5898C231.231 49.2498 230.771 49.0598 230.281 49.0598C229.941 49.0598 228.641 48.6698 228.641 48.6698C228.991 49.0898 229.231 49.5798 229.341 50.1098C228.841 50.0198 228.321 50.0198 227.821 50.1098C228.351 50.4998 228.791 50.9998 229.121 51.5598C229.321 52.0798 229.601 52.5598 229.941 52.9998C230.101 53.0898 230.521 53.6198 230.811 53.9098C231.101 54.1998 232.251 54.0498 232.641 54.0498C232.941 54.1098 233.241 54.1998 233.521 54.3198C233.881 54.7898 234.291 55.2298 234.741 55.6198C234.341 55.4598 233.981 55.2298 233.671 54.9298C233.491 54.6698 233.671 55.7698 233.921 56.1398C233.621 56.1398 233.331 56.0498 233.081 55.8898C232.771 55.6398 233.081 56.7698 233.391 57.0798C234.131 57.7398 234.071 57.8498 234.181 57.8998C233.611 58.0898 233.011 58.1498 232.411 58.0798C232.061 57.8898 232.801 58.5598 233.241 58.7298C233.681 58.8998 233.801 59.3798 234.541 59.5998C235.151 59.8698 235.811 60.0198 236.481 60.0398C236.821 59.9298 237.181 59.8398 237.531 59.7798C238.161 59.4998 238.811 59.2598 239.481 59.0698C240.241 59.5398 241.031 59.9798 241.831 60.3698H241.951H241.681C241.111 60.5398 240.511 60.5998 239.911 60.5598C239.641 60.4198 240.211 61.1998 240.561 61.4998C240.031 61.6098 239.481 61.6498 238.941 61.6198C238.551 61.5398 239.721 62.6598 240.171 62.7898C239.891 62.8998 239.591 62.9598 239.291 62.9798C238.891 62.9798 240.591 64.0498 241.021 63.9798C242.491 63.7698 243.881 64.2698 244.551 63.9798C245.221 63.6898 245.521 63.5798 245.851 63.4898C246.181 63.3998 246.331 63.0998 246.511 62.9598C246.701 62.7198 246.941 62.5298 247.211 62.3898C247.241 62.3898 247.271 62.3898 247.301 62.3898C247.811 62.4198 248.331 62.4198 248.851 62.3898C248.621 62.4798 248.401 62.6098 248.211 62.7698C247.461 62.9998 246.911 63.2098 246.651 63.2998C245.761 63.8898 244.941 64.5698 244.201 65.3298C244.201 65.3298 245.501 65.2298 245.641 65.2298C245.781 65.2298 246.261 64.3698 246.461 64.2298C246.661 64.0898 246.841 64.0198 247.301 63.7998C246.701 64.6398 246.841 65.7898 247.621 66.4598C247.281 66.0698 247.621 65.3898 247.621 65.3898L248.301 65.8198C247.791 64.8698 248.141 63.6898 249.091 63.1798C249.131 63.1598 249.171 63.1398 249.211 63.1198H249.341C249.521 63.4098 249.911 63.4998 250.201 63.3098C250.281 63.2598 250.341 63.1998 250.391 63.1198L250.661 63.2098C251.591 63.6998 251.951 64.8498 251.461 65.7898C251.461 65.7898 251.461 65.7998 251.451 65.8098L252.131 65.3798C252.131 65.3798 252.511 66.0598 252.131 66.4498C252.821 65.8298 253.001 64.8198 252.561 64.0098C252.961 64.1998 253.241 64.3498 253.291 64.3898C253.341 64.4298 253.911 65.3898 254.111 65.3898C254.311 65.3898 255.551 65.4898 255.551 65.4898C254.811 64.7298 253.981 64.0498 253.101 63.4598C252.921 63.3698 252.361 63.1898 251.661 62.9698C251.461 62.7898 251.231 62.6498 250.981 62.5498C251.491 62.5798 252.011 62.5798 252.531 62.5498C252.791 62.6998 253.021 62.8798 253.221 63.1098C253.411 63.2498 253.581 63.5298 253.881 63.6398C254.181 63.7498 254.541 63.8998 255.181 64.1298C255.821 64.3598 257.251 63.9098 258.711 64.1298C259.161 64.1898 260.841 63.0998 260.441 63.1298C260.141 63.1098 259.841 63.0398 259.561 62.9398C260.011 62.8098 261.171 61.6398 260.781 61.7698C260.241 61.8098 259.691 61.7698 259.161 61.6498C259.521 61.3498 260.081 60.5698 259.821 60.7098C259.251 60.7098 258.691 60.6198 258.161 60.4398H257.891H258.021C258.791 60.0598 259.591 59.6198 260.371 59.1398C261.031 59.3398 261.681 59.5798 262.311 59.8498C262.671 59.9098 263.021 59.9898 263.361 60.1098C264.031 60.0898 264.691 59.9398 265.311 59.6698C266.001 59.4498 265.911 59.0298 266.541 58.7998C267.171 58.5698 267.721 57.9598 267.371 58.1498C266.771 58.2198 266.171 58.1498 265.601 57.9698C265.731 57.9698 265.601 57.8098 266.411 57.1498C266.751 56.8398 267.031 55.7098 266.711 55.9598C266.471 56.0598 266.211 56.0898 265.961 56.0598C266.171 55.6998 266.391 54.5898 266.191 54.8498C265.891 55.1498 265.521 55.3898 265.121 55.5398C265.601 55.1498 266.031 54.7198 266.421 54.2398C266.701 54.1198 266.991 54.0198 267.291 53.9698C267.681 53.9698 268.841 54.1098 269.121 53.8298C269.401 53.5498 269.831 53.0098 269.991 52.9198C270.341 52.4798 270.611 51.9998 270.811 51.4798C271.151 50.9198 271.591 50.4198 272.111 50.0298C271.611 49.9398 271.101 49.9398 270.601 50.0298C270.681 49.5398 270.871 49.0798 271.151 48.6698C271.151 48.6698 269.851 49.0098 269.531 49.0598C269.041 49.0598 268.571 49.2498 268.231 49.5898L268.651 48.1098C268.671 47.9998 268.691 47.8998 268.731 47.7998C268.891 47.5598 269.131 47.3798 269.411 47.2898C270.371 46.9698 271.241 46.8998 271.591 46.5498L272.251 45.8398C272.501 45.5398 272.701 45.1998 272.831 44.8298C272.971 44.3298 273.081 43.8098 273.151 43.2998L273.171 43.2798ZM269.701 42.3398C269.661 43.0198 269.561 43.6998 269.401 44.3698C269.381 44.0998 269.311 43.8298 269.191 43.5898C269.051 43.2998 268.851 43.2998 268.761 43.0098C268.671 42.7198 268.331 42.6198 268.141 42.3898C267.961 42.1998 267.771 42.0198 267.561 41.8698C267.421 42.4698 267.381 43.0798 267.461 43.6898C267.501 43.7898 267.531 43.8898 267.541 43.9898L267.281 43.8198C267.031 44.3898 267.281 44.9798 267.421 45.4998C267.511 45.7398 267.621 45.9598 267.761 46.1798C267.851 46.3698 267.761 46.5598 267.901 46.7098C268.041 46.8598 268.201 46.8498 268.421 47.0498C268.421 47.3098 268.461 47.5598 268.541 47.7998C268.361 48.4198 268.151 49.0998 267.931 49.6798C267.911 49.4398 267.841 49.2198 267.711 49.0198C267.521 48.8098 267.371 48.5498 267.281 48.2798C267.091 47.7598 266.701 47.7598 266.641 47.2298C266.551 47.6098 266.491 47.9998 266.461 48.3898C266.421 48.7298 266.451 49.0598 266.541 49.3898C266.561 49.6098 266.531 49.8298 266.451 50.0398C266.451 49.7498 266.391 49.4698 266.271 49.2098C266.171 49.0298 266.141 48.8298 266.171 48.6298C265.971 48.9798 265.721 49.3098 265.431 49.5998L265.261 49.2998C267.781 44.8798 267.201 37.3298 267.091 36.3098C267.511 36.2298 267.431 36.0098 267.431 36.0098L267.291 35.4498C267.291 35.4498 267.371 35.5098 267.421 35.5098H267.511C267.561 35.5298 267.621 35.5298 267.681 35.5098C267.751 35.4598 267.791 35.3798 267.801 35.2898C267.931 35.4698 268.111 35.6098 268.321 35.7098C268.671 35.8098 268.961 35.9698 269.001 36.0998C269.221 37.0098 269.381 37.9298 269.491 38.8498C269.111 38.4198 269.011 37.5498 268.191 37.1598C268.211 37.3498 268.211 37.5498 268.191 37.7398C268.131 37.9898 268.111 38.2398 268.111 38.4898C267.851 38.3198 267.621 38.0998 267.451 37.8398C267.371 38.4598 267.431 39.0898 267.641 39.6698C267.991 40.2898 267.991 40.6298 268.351 40.7598C268.561 40.8398 268.761 40.9598 268.931 41.1098C269.101 41.2298 269.301 41.3098 269.511 41.3398C269.561 41.3398 269.611 41.3698 269.641 41.4198C269.651 41.5198 269.681 41.6098 269.721 41.7098C269.721 41.8898 269.721 42.1398 269.711 42.3498L269.701 42.3398ZM236.101 37.1398L238.701 38.9298C238.671 39.8898 238.791 40.8398 239.061 41.7598L236.941 45.3098C236.581 44.5698 235.691 42.0798 236.101 37.1398ZM232.201 35.0498C232.291 34.8798 232.451 34.7598 232.641 34.7098C232.661 34.8998 232.601 35.0998 232.471 35.2398C232.441 35.2898 232.401 35.3298 232.341 35.3398C232.301 35.3498 232.251 35.3498 232.211 35.3398C232.201 35.3198 232.191 35.2898 232.201 35.2598C232.171 35.1898 232.171 35.1098 232.201 35.0398V35.0498ZM240.601 29.1098L242.591 31.3698C242.471 32.6398 242.601 33.9198 242.991 35.1398L241.131 38.2398C240.731 37.3298 239.821 34.6698 240.581 29.1098H240.591H240.601ZM248.551 27.6698C249.451 27.5098 250.381 27.5098 251.281 27.6698L251.571 28.1498C250.481 27.9098 249.351 27.9098 248.261 28.1498L248.561 27.6698H248.551ZM248.781 27.2798L249.911 25.3798L251.041 27.2598C250.291 27.1598 249.521 27.1598 248.771 27.2698H248.781V27.2798ZM248.001 28.5798C249.251 28.2398 250.571 28.2398 251.821 28.5798L252.131 29.0998C250.691 28.5998 249.131 28.5998 247.691 29.0998L248.001 28.5798ZM247.381 29.6198C248.991 28.9198 250.821 28.9198 252.431 29.6198L260.221 42.6998H257.381L257.001 42.4398L256.871 42.3098C256.681 42.1798 256.451 42.1398 256.231 42.1898C256.111 42.2098 256.001 42.2498 255.891 42.3098C255.781 42.3598 255.681 42.4298 255.591 42.4998H255.451C255.201 42.3698 254.971 42.2198 254.751 42.0498C254.691 41.9898 254.611 41.9298 254.531 41.8898C254.401 41.8198 254.251 41.7798 254.101 41.7898C254.001 41.7798 253.891 41.7798 253.791 41.7898C253.651 41.8398 253.511 41.9098 253.391 41.9798L253.161 42.1498C253.021 42.0598 252.861 41.9798 252.711 41.9198C252.571 41.8598 252.431 41.7898 252.291 41.7098C252.101 41.5998 251.921 41.4698 251.761 41.3298L251.571 41.1898C251.431 41.1098 251.281 41.0598 251.121 41.0498C251.011 41.0298 250.891 41.0298 250.781 41.0498C250.631 41.0798 250.491 41.1298 250.361 41.2098L250.151 41.3398V36.8298C250.631 36.8298 250.991 36.6398 250.991 36.4298C250.901 35.7398 250.631 35.0798 250.201 34.5298C249.911 34.3398 249.531 34.3398 249.241 34.5298C249.241 34.5298 248.661 34.8798 248.951 35.3598C248.951 35.3598 248.951 35.4998 249.271 35.3598C249.381 35.3198 249.461 35.2198 249.481 35.0998V35.2698C249.481 35.4398 249.251 35.5298 249.231 35.5398C249.111 35.8398 249.031 36.1498 248.981 36.4598C248.981 36.6698 249.361 36.8398 249.841 36.8598V41.4598C249.641 41.3398 249.451 41.1998 249.271 41.0598C249.211 40.9998 249.141 40.9498 249.061 40.8998C248.921 40.8198 248.771 40.7698 248.611 40.7598C248.481 40.7398 248.351 40.7398 248.221 40.7598C248.071 40.7998 247.921 40.8498 247.781 40.9298C247.641 41.0098 247.511 41.0998 247.381 41.1898L247.211 41.0898L246.951 40.9598C246.831 40.9198 246.711 40.8698 246.601 40.7998C246.281 40.6398 245.981 40.4398 245.701 40.1998L245.621 40.1398C245.411 39.9698 245.151 39.8698 244.881 39.8398H244.671C244.501 39.8598 244.331 39.9098 244.161 39.9698C243.971 40.0498 243.791 40.1498 243.631 40.2698C243.441 40.3998 243.261 40.5398 243.101 40.6998C242.891 40.9098 242.701 41.1298 242.501 41.3598C242.321 41.5798 242.151 41.8098 242.011 42.0598C241.901 42.1998 241.771 42.3298 241.651 42.4598L241.401 42.6798H239.561L247.381 29.6098V29.6198ZM258.641 38.2298L256.801 35.1298C257.191 33.9098 257.331 32.6298 257.201 31.3598L259.231 29.1098C260.001 34.6698 259.071 37.3198 258.631 38.2298H258.641ZM267.201 34.7098C267.391 34.7598 267.551 34.8798 267.641 35.0498C267.661 35.0998 267.661 35.1598 267.641 35.2198C267.651 35.2598 267.651 35.2998 267.641 35.3398C267.601 35.3498 267.551 35.3498 267.511 35.3398C267.451 35.3198 267.401 35.2898 267.371 35.2398C267.251 35.0898 267.181 34.9098 267.191 34.7198H267.201V34.7098ZM262.891 45.3198L260.771 41.7598C261.051 40.8398 261.171 39.8898 261.121 38.9298L263.721 37.1398C264.121 42.0598 263.241 44.5598 262.881 45.3198H262.891ZM235.421 49.5498L237.391 46.2598H261.651L261.531 46.1998C261.381 46.1198 261.251 46.0198 261.111 45.9098C260.861 45.7198 260.641 45.5198 260.421 45.3098C260.201 45.0998 259.801 44.6998 259.481 44.3898L258.901 43.7498L258.641 43.4798C258.481 43.3198 258.301 43.1798 258.111 43.0598L257.851 42.9198H260.451L264.391 49.5398H235.411L235.421 49.5498ZM239.421 42.8498H240.911C240.621 43.0898 240.331 43.3298 240.011 43.5498H239.921L239.441 43.8698C239.181 44.0598 238.951 44.2698 238.711 44.4798L238.021 45.1298L239.411 42.8398L239.421 42.8498ZM249.811 41.9398L249.981 42.0198L250.171 42.0998C250.341 42.1998 250.501 42.3098 250.651 42.4198C250.911 42.6198 251.151 42.8498 251.361 43.0998C251.681 43.4598 252.021 43.8298 252.371 44.1798L252.801 44.6198C253.161 44.9798 253.531 45.3298 253.921 45.6698L254.001 45.7298H252.161L252.031 45.6298C251.771 45.4198 251.511 45.2098 251.261 44.9798C251.011 44.7498 250.691 44.4598 250.421 44.1998C249.821 43.5998 249.241 43.0098 248.681 42.3798L248.381 42.0598C248.171 41.8298 247.931 41.6098 247.681 41.4198C247.801 41.3298 247.931 41.2498 248.071 41.1998H248.321C248.461 41.1898 248.611 41.2098 248.741 41.2798C248.801 41.3098 248.861 41.3498 248.921 41.3998C249.061 41.5198 249.211 41.6298 249.361 41.7398C249.521 41.8398 249.681 41.9198 249.851 41.9998L249.811 41.9498V41.9398ZM257.451 43.2398H257.541L257.751 43.3398C257.931 43.4398 258.101 43.5698 258.241 43.7198C258.341 43.8098 258.441 43.8998 258.531 44.0098C258.701 44.2098 258.891 44.3998 259.081 44.5898L259.591 45.1098C259.781 45.3198 260.011 45.5298 260.211 45.7198H259.141L258.571 45.2098C258.381 45.0398 258.211 44.8598 258.021 44.6898C257.631 44.2998 257.241 43.8998 256.881 43.4998L256.651 43.2398C256.461 43.0498 256.261 42.8798 256.051 42.7198C256.141 42.6598 256.241 42.6198 256.351 42.5898C256.441 42.5598 256.541 42.5598 256.641 42.5898L256.741 42.6698C256.971 42.8998 257.221 43.0898 257.491 43.2498H257.451V43.2398ZM256.021 43.3698C256.171 43.4898 256.301 43.6298 256.421 43.7698L257.261 44.6698C257.521 44.9398 257.781 45.1998 258.051 45.4498L258.371 45.7498H256.861L256.561 45.4998L255.751 44.7698L255.311 44.3398C254.921 43.9498 254.531 43.5498 254.151 43.1298L253.901 42.8598C253.771 42.7198 253.621 42.5798 253.471 42.4598C253.571 42.3898 253.671 42.3298 253.781 42.2798H254.011C254.091 42.2598 254.171 42.2598 254.241 42.2798L254.381 42.3798C254.611 42.5598 254.861 42.7298 255.121 42.8698L255.351 42.9598L255.531 43.0398C255.701 43.1398 255.861 43.2498 256.011 43.3798H255.971L256.021 43.3698ZM253.721 43.3598C253.931 43.6098 254.151 43.8398 254.371 44.0598C254.591 44.2798 254.771 44.4898 254.971 44.6798C255.171 44.8698 255.671 45.3698 256.041 45.6898L256.131 45.7698H254.781L254.491 45.5398C254.171 45.2698 253.871 44.9898 253.571 44.7098L253.091 44.2298C252.661 43.8098 252.261 43.3698 251.861 42.9298L251.571 42.6298C251.341 42.3798 251.071 42.1498 250.791 41.9498C250.661 41.8698 250.531 41.7898 250.391 41.7298C250.511 41.6498 250.641 41.5898 250.781 41.5598C250.851 41.5498 250.931 41.5498 251.001 41.5598C251.081 41.5398 251.171 41.5398 251.251 41.5598L251.411 41.6798C251.701 41.9198 252.021 42.1198 252.361 42.2898H252.501L252.751 42.4098C252.921 42.5198 253.091 42.6398 253.241 42.7698C253.441 42.9398 253.621 43.1298 253.771 43.3398H253.731L253.721 43.3598ZM247.811 42.2698C247.941 42.3998 248.061 42.5398 248.171 42.6698C248.281 42.7998 248.461 42.9698 248.591 43.1198C248.721 43.2698 249.101 43.6498 249.341 43.9098C249.791 44.3798 250.261 44.8298 250.741 45.2698L251.311 45.7598H238.131L238.321 45.5698L238.921 44.9998L239.691 44.3498L240.201 44.0098L240.341 43.9098C240.761 43.6198 241.161 43.2998 241.531 42.9498C241.741 42.7498 241.941 42.5398 242.131 42.3098C242.291 42.0598 242.451 41.8298 242.641 41.5998C242.831 41.3698 242.951 41.2498 243.121 41.0798C243.291 40.8998 243.481 40.7498 243.681 40.6098C243.811 40.5198 243.951 40.4398 244.101 40.3798L244.411 40.2998C244.591 40.2798 244.781 40.3098 244.941 40.3998C245.021 40.3998 245.111 40.4198 245.191 40.4398C245.341 40.5698 245.491 40.6798 245.661 40.7898L246.231 41.1298L246.551 41.2698L246.771 41.3698C246.951 41.4698 247.131 41.5898 247.291 41.7198C247.491 41.8798 247.671 42.0598 247.851 42.2398H247.811V42.2698ZM244.811 50.4898C245.451 50.9698 246.181 51.3098 246.951 51.5198C244.671 52.1898 242.221 51.8098 240.251 50.4898H244.811ZM249.371 53.1898C249.371 53.1898 249.681 51.5298 249.861 50.4898C250.041 51.5298 250.371 53.1898 250.371 53.1898C250.461 53.7498 250.291 54.3298 249.901 54.7498C249.511 54.3298 249.331 53.7498 249.411 53.1798H249.371V53.1898ZM254.921 50.4998H259.481C257.511 51.8198 255.051 52.1898 252.781 51.5298C253.571 51.3298 254.311 50.9798 254.961 50.4898H254.921V50.4998ZM266.531 34.1598C266.501 34.0998 266.501 34.0398 266.531 33.9798C266.531 33.9498 266.531 33.9298 266.531 33.8998C266.691 34.0098 266.821 34.1498 266.931 34.2998C266.931 34.3598 266.931 34.4098 266.931 34.4698C266.781 34.4098 266.651 34.2898 266.571 34.1498H266.531V34.1598ZM262.981 26.2098C262.901 26.2798 262.791 26.2798 262.711 26.2098C262.571 26.0998 262.471 25.9298 262.441 25.7598C262.621 25.7598 262.791 25.8498 262.921 25.9798C262.991 26.0398 263.021 26.1298 262.981 26.2098ZM262.601 24.9098L263.111 24.7398L262.991 25.2698H262.571L262.601 24.9098ZM261.641 25.0098C261.641 25.0098 261.721 24.9998 261.761 25.0098C261.811 24.9898 261.871 24.9898 261.931 25.0098C262.071 25.1198 262.171 25.2798 262.201 25.4498H262.111C261.951 25.4198 261.811 25.3398 261.691 25.2298C261.591 25.1798 261.551 25.0498 261.611 24.9498C261.611 24.9298 261.631 24.9198 261.641 24.9098V25.0098ZM250.541 18.8098C250.661 18.8098 250.761 18.8098 250.761 18.9798C250.761 19.1498 250.661 19.1498 250.541 19.1498C250.351 19.1498 250.161 19.0998 250.011 18.9798C250.151 18.8298 250.341 18.7498 250.541 18.7598V18.8098ZM249.901 17.7998L250.171 18.2798L249.911 18.5898L249.641 18.2798L249.901 17.7998ZM249.221 19.1598C249.161 19.1598 249.101 19.1398 249.051 19.0998C249.041 19.0698 249.041 19.0298 249.051 18.9998C249.031 18.9698 249.031 18.9298 249.051 18.8998C249.111 18.8798 249.171 18.8798 249.231 18.8998C249.421 18.8798 249.611 18.9398 249.751 19.0698C249.581 19.1498 249.401 19.1698 249.221 19.1198V19.1698V19.1598ZM249.791 22.2998C250.051 21.8998 250.241 21.4598 250.371 20.9998C250.551 22.0298 250.481 23.0898 250.191 24.0898L249.941 23.6898L249.131 24.9898C249.061 24.0498 249.281 23.1098 249.781 22.2998H249.791ZM237.881 24.9998C237.931 24.9698 238.001 24.9698 238.051 24.9998C238.081 24.9798 238.121 24.9798 238.151 24.9998C238.161 25.0298 238.161 25.0698 238.151 25.0998C238.151 25.1698 238.121 25.2298 238.061 25.2698C237.941 25.4098 237.761 25.4898 237.581 25.4998C237.581 25.2798 237.701 25.0898 237.881 24.9698V24.9998ZM236.691 24.6998L237.211 24.8698V25.2898H236.811L236.691 24.7098V24.6998ZM236.941 26.1898C236.941 26.1898 236.871 26.1998 236.841 26.1898C236.821 26.1498 236.821 26.1098 236.841 26.0698C236.841 25.9998 236.881 25.9398 236.931 25.8998C237.051 25.7698 237.221 25.6798 237.401 25.6698C237.361 25.8598 237.261 26.0398 237.111 26.1598C237.061 26.1898 237.001 26.1998 236.941 26.1898ZM233.241 34.1498C233.141 34.3098 232.981 34.4198 232.801 34.4698C232.801 34.4198 232.801 34.3698 232.801 34.3098C232.911 34.1398 233.051 33.9998 233.221 33.8898C233.221 33.8898 233.231 33.9598 233.221 33.9898C233.241 34.0298 233.251 34.0798 233.251 34.1298L233.241 34.1498ZM230.121 41.6298L230.201 41.3398C230.201 41.3398 230.271 41.2698 230.321 41.2598C230.531 41.2298 230.731 41.1498 230.901 41.0298C231.071 40.8798 231.271 40.7598 231.481 40.6798C231.861 40.5498 231.861 40.2098 232.191 39.5898C232.401 38.9998 232.471 38.3798 232.381 37.7598C232.211 38.0198 231.991 38.2398 231.731 38.4098C231.731 38.1598 231.701 37.8998 231.641 37.6598C231.621 37.4698 231.621 37.2698 231.641 37.0798C230.781 37.5198 230.691 38.3798 230.341 38.7698C230.441 37.8398 230.601 36.9198 230.821 36.0198C231.001 35.8198 231.241 35.6798 231.511 35.6298C231.711 35.5398 231.881 35.3998 232.021 35.2298C232.021 35.3198 232.081 35.3998 232.151 35.4498C232.201 35.4698 232.261 35.4698 232.321 35.4498H232.411C232.411 35.4498 232.501 35.4198 232.541 35.3898L232.451 35.8798C232.451 35.8798 232.391 36.0998 232.791 36.1798C232.701 37.2198 232.111 44.7898 234.651 49.1698L234.471 49.4598C234.191 49.1598 233.941 48.8398 233.731 48.4898C233.761 48.6898 233.731 48.8898 233.641 49.0698C233.511 49.3298 233.441 49.6098 233.451 49.8998C233.391 49.6898 233.351 49.4698 233.361 49.2498C233.461 48.9298 233.491 48.5898 233.451 48.2498C233.411 47.8598 233.351 47.4798 233.271 47.0898C233.271 47.6198 232.831 47.6198 232.631 48.1398C232.531 48.4198 232.391 48.6898 232.201 48.9198C232.061 49.1198 231.981 49.3398 231.971 49.5798C231.751 48.9598 231.541 48.2798 231.361 47.6998C231.441 47.4598 231.481 47.1998 231.481 46.9498C231.701 46.7598 231.911 46.7398 232.001 46.6098C232.091 46.4798 232.001 46.2698 232.161 46.0798C232.291 45.8698 232.401 45.6398 232.481 45.3998C232.701 44.8698 232.751 44.2798 232.621 43.7198L232.361 43.8198C232.361 43.7198 232.391 43.6198 232.421 43.5198C232.491 42.9098 232.461 42.2998 232.331 41.6998C232.121 41.8498 231.921 42.0298 231.751 42.2198C231.561 42.4498 231.221 42.5598 231.131 42.8398C231.041 43.1198 230.831 43.1398 230.701 43.4198C230.571 43.6598 230.501 43.9298 230.481 44.1998C230.331 43.5498 230.231 42.8998 230.181 42.2398C230.131 42.1398 230.121 41.8898 230.131 41.6298H230.121ZM251.861 61.5798C251.411 61.5798 250.961 61.6898 250.561 61.8898C251.071 61.0298 251.631 60.2098 252.251 59.4198C252.521 60.1598 252.371 60.9798 251.861 61.5798ZM249.261 61.8898C248.861 61.6898 248.411 61.5798 247.961 61.5798C247.421 60.9898 247.251 60.1398 247.531 59.3898C248.151 60.1698 248.711 60.9998 249.221 61.8598L249.261 61.8998V61.8898ZM264.081 55.8098C264.081 55.8098 264.081 55.7198 264.081 55.6798C264.191 55.3798 264.251 55.0698 264.271 54.7598C264.211 54.3698 264.111 53.9898 263.971 53.6198C263.841 53.2698 263.501 52.4598 263.161 52.3198C263.161 52.3198 262.871 53.2298 262.781 53.6198C262.721 53.9398 262.601 54.2598 262.431 54.5398L262.221 54.8998C262.191 54.6898 262.191 54.4698 262.221 54.2598C262.221 53.6198 261.271 52.6198 261.271 52.6198C261.241 53.1998 261.071 53.7598 260.781 54.2598C260.511 54.6798 260.331 55.1498 260.261 55.6398C260.231 55.9798 260.101 56.2998 259.871 56.5498C259.581 56.9498 259.871 58.5898 259.871 58.7698C259.231 59.1698 258.571 59.5598 257.931 59.8698L257.311 60.1598L257.431 60.0398C257.881 59.6398 258.211 59.1298 258.391 58.5598C258.691 58.5598 257.991 58.4298 257.581 58.4698C257.811 58.1098 258.141 57.6098 258.371 57.1698C258.601 56.7298 256.821 57.2898 256.821 57.2898L256.351 57.4698C256.481 57.0698 256.571 56.6598 256.641 56.2498C256.641 56.1098 255.901 56.3498 255.341 56.5998C254.911 56.8598 254.511 57.1498 254.131 57.4698C253.611 57.7898 253.551 58.6298 253.311 59.0198C253.191 59.2298 253.091 59.4498 253.001 59.6698C253.001 59.2798 252.821 59.0998 252.661 59.0198H252.571L252.001 58.9298C251.501 58.8398 250.991 59.0498 250.701 59.4798C250.431 60.1398 250.221 60.8198 250.061 61.5098C249.981 61.4998 249.901 61.4998 249.831 61.5098C249.761 61.4998 249.681 61.4998 249.611 61.5098C249.481 60.7898 249.291 60.0798 249.051 59.3898C248.761 58.9698 248.251 58.7598 247.751 58.8398L247.181 58.9298H247.091C246.911 59.0198 246.741 59.2698 246.731 59.8298C246.671 59.5098 246.551 59.2098 246.381 58.9298C246.151 58.5398 246.071 57.7098 245.561 57.3798C245.181 57.0598 244.771 56.7698 244.341 56.5098C243.761 56.2598 243.041 56.0198 243.041 56.1598C243.101 56.5698 243.191 56.9798 243.311 57.3798L242.861 57.1998C242.861 57.1998 241.131 56.7498 241.301 57.0798C241.471 57.4098 241.861 57.9998 242.111 58.3798C241.691 58.3798 240.991 58.3798 241.291 58.4698C241.461 59.0298 241.761 59.5398 242.191 59.9498L242.321 60.0698C242.091 59.9798 241.881 59.8798 241.681 59.7798C241.061 59.4698 240.381 59.0798 239.741 58.6798C239.741 58.4998 240.101 56.8598 239.821 56.4598C239.591 56.2098 239.461 55.8898 239.431 55.5498C239.361 55.0598 239.171 54.5898 238.901 54.1698C238.601 53.6698 238.441 53.1098 238.421 52.5298C238.421 52.5298 237.411 53.5298 237.461 54.1698C237.481 54.3798 237.481 54.5898 237.461 54.8098C237.401 54.6798 237.321 54.5598 237.241 54.4498C237.081 54.1598 236.961 53.8498 236.901 53.5298C236.801 53.2098 236.521 52.2298 236.521 52.2298C236.171 52.3698 235.841 53.1798 235.701 53.5298C235.561 53.8998 235.461 54.2798 235.411 54.6698C235.351 54.8998 235.551 55.3598 235.601 55.5898C235.601 55.6298 235.601 55.6798 235.601 55.7198C234.861 55.1998 234.211 54.5398 233.701 53.7798C233.721 53.5998 233.791 53.4298 233.911 53.2898C234.211 52.9598 234.451 52.5798 234.621 52.1698C234.671 51.8798 234.671 51.5898 234.621 51.2998C234.651 51.0098 234.701 50.7298 234.761 50.4398H235.571C239.211 53.2398 244.061 53.8898 248.311 52.1498C248.291 52.2298 248.261 52.2998 248.221 52.3698C248.221 52.3698 246.921 54.1398 249.861 54.7298C252.811 54.1298 251.511 52.3698 251.511 52.3698C251.471 52.2998 251.431 52.2298 251.411 52.1498C255.641 53.8798 260.461 53.2498 264.101 50.4898H264.921C264.981 50.7698 265.021 51.0598 265.051 51.3498C265.001 51.6398 265.001 51.9298 265.051 52.2198C265.231 52.6298 265.471 53.0098 265.781 53.3398C265.891 53.4898 265.951 53.6598 265.971 53.8298C265.461 54.5998 264.821 55.2698 264.061 55.7998H264.051L264.081 55.8098Z" fill="#313945"/>
<path d="M259.399 57.4697C259.249 57.4697 259.119 57.5797 259.109 57.7297C259.109 57.7297 259.109 57.7297 259.109 57.7397C259.109 57.8997 259.219 58.0297 259.379 58.0397C259.379 58.0397 259.379 58.0397 259.389 58.0397C259.549 58.0397 259.679 57.9097 259.679 57.7497C259.679 57.7497 259.679 57.7497 259.679 57.7397C259.679 57.5897 259.549 57.4697 259.389 57.4697H259.399Z" fill="#313945"/>
<path d="M261.04 59.4697C260.88 59.4697 260.74 59.5997 260.74 59.7697C260.74 59.9297 260.87 60.0597 261.03 60.0597C261.03 60.0597 261.03 60.0597 261.04 60.0597C261.2 60.0597 261.33 59.9297 261.33 59.7697C261.33 59.6097 261.2 59.4797 261.04 59.4697Z" fill="#313945"/>
<path d="M264.831 53.1299C264.671 53.1299 264.541 53.2599 264.541 53.4199C264.541 53.4199 264.541 53.4199 264.541 53.4299C264.541 53.5899 264.671 53.7199 264.831 53.7199C264.991 53.7199 265.121 53.5899 265.121 53.4299C265.121 53.2699 265.011 53.1399 264.851 53.1299C264.851 53.1299 264.851 53.1299 264.841 53.1299H264.831Z" fill="#313945"/>
<path d="M266.871 54.5795C266.871 54.7495 267.011 54.8995 267.181 54.8995C267.361 54.8995 267.501 54.7495 267.501 54.5795C267.501 54.4095 267.351 54.2695 267.181 54.2695C267.011 54.2795 266.881 54.4095 266.871 54.5795Z" fill="#313945"/>
<path d="M267.611 47.7799C267.781 47.7799 267.931 47.6499 267.931 47.4799C267.931 47.4799 267.931 47.4799 267.931 47.4699C267.971 47.2899 267.851 47.1199 267.681 47.0899C267.511 47.0599 267.331 47.1699 267.301 47.3399C267.301 47.3799 267.301 47.4299 267.301 47.4699C267.301 47.6399 267.441 47.7799 267.611 47.7799Z" fill="#313945"/>
<path d="M268.57 41.3896C268.4 41.3896 268.25 41.5196 268.25 41.6896C268.25 41.6896 268.25 41.6896 268.25 41.6996C268.25 41.8796 268.4 42.0196 268.57 42.0196C268.74 42.0196 268.88 41.8696 268.88 41.6996C268.88 41.5396 268.76 41.3996 268.59 41.3896C268.59 41.3896 268.57 41.3896 268.56 41.3896H268.57Z" fill="#313945"/>
<path d="M270.351 36.2001C270.521 36.2001 270.671 36.0701 270.671 35.9001C270.671 35.7201 270.521 35.5801 270.351 35.5801C270.181 35.5801 270.041 35.7301 270.041 35.9001C270.051 36.0601 270.191 36.1901 270.351 36.2001Z" fill="#313945"/>
<path d="M268.101 36.7796C268.281 36.7796 268.421 36.6296 268.421 36.4596C268.421 36.2896 268.271 36.1396 268.101 36.1396C267.931 36.1396 267.781 36.2896 267.781 36.4596C267.781 36.6296 267.931 36.7796 268.101 36.7796Z" fill="#313945"/>
<path d="M266.212 31.6003C266.212 31.4303 266.062 31.2903 265.892 31.3003C265.722 31.3003 265.592 31.4303 265.582 31.6003C265.542 31.7803 265.662 31.9503 265.832 31.9803C266.002 32.0103 266.182 31.9003 266.212 31.7303C266.212 31.6903 266.212 31.6403 266.212 31.6003Z" fill="#313945"/>
<path d="M267.57 30.59C267.75 30.63 267.92 30.51 267.95 30.34C267.98 30.17 267.87 29.99 267.7 29.96C267.66 29.96 267.61 29.96 267.57 29.96C267.4 29.96 267.26 30.1 267.26 30.27C267.26 30.44 267.39 30.59 267.56 30.59C267.56 30.59 267.56 30.59 267.57 30.59Z" fill="#313945"/>
<path d="M270.75 41.77C270.75 41.94 270.9 42.08 271.07 42.07C271.24 42.04 271.35 41.87 271.31 41.7C271.28 41.58 271.19 41.48 271.07 41.46C270.9 41.46 270.75 41.6 270.75 41.77Z" fill="#313945"/>
<path d="M240.431 57.4703C240.281 57.4703 240.161 57.5903 240.141 57.7403C240.141 57.9003 240.271 58.0303 240.431 58.0403C240.591 58.0403 240.731 57.9103 240.731 57.7403C240.731 57.5803 240.591 57.4603 240.431 57.4703Z" fill="#313945"/>
<path d="M239.09 59.7697C239.09 59.6097 238.96 59.4797 238.8 59.4697C238.64 59.4697 238.51 59.6097 238.5 59.7697C238.5 59.9297 238.63 60.0597 238.79 60.0597C238.79 60.0597 238.79 60.0597 238.8 60.0597C238.96 60.0597 239.09 59.9297 239.09 59.7697Z" fill="#313945"/>
<path d="M235.001 53.1299C234.841 53.1299 234.711 53.2599 234.711 53.4199C234.711 53.4199 234.711 53.4199 234.711 53.4299C234.711 53.5899 234.841 53.7199 235.001 53.7199C235.161 53.7499 235.321 53.6499 235.351 53.4899C235.381 53.3299 235.281 53.1699 235.121 53.1399C235.081 53.1399 235.041 53.1399 235.001 53.1399V53.1299Z" fill="#313945"/>
<path d="M232.65 54.8995C232.83 54.8995 232.97 54.7495 232.97 54.5795C232.96 54.4095 232.82 54.2695 232.65 54.2695C232.48 54.2695 232.34 54.4095 232.34 54.5795C232.34 54.7495 232.47 54.8995 232.64 54.8995C232.64 54.8995 232.64 54.8995 232.65 54.8995Z" fill="#313945"/>
<path d="M232.21 47.1504C232.04 47.1504 231.9 47.3004 231.9 47.4704C231.9 47.6304 232.02 47.7704 232.19 47.7804C232.19 47.7804 232.21 47.7804 232.22 47.7804C232.39 47.7804 232.54 47.6404 232.54 47.4704C232.54 47.2904 232.39 47.1504 232.22 47.1504H232.21Z" fill="#313945"/>
<path d="M230.56 48.0405C230.56 47.8705 230.42 47.7305 230.25 47.7305C230.08 47.7305 229.93 47.8705 229.93 48.0405C229.93 48.2205 230.08 48.3605 230.25 48.3605C230.42 48.3605 230.56 48.2105 230.56 48.0405Z" fill="#313945"/>
<path d="M231.24 42.0305C231.42 42.0305 231.56 41.8805 231.56 41.7105C231.56 41.5405 231.42 41.4005 231.25 41.4005C231.25 41.4005 231.25 41.4005 231.24 41.4005C231.07 41.3805 230.92 41.5105 230.9 41.6805C230.9 41.7105 230.9 41.7505 230.9 41.7805C230.93 41.9405 231.08 42.0505 231.24 42.0405V42.0305Z" fill="#313945"/>
<path d="M229.482 36.2001C229.652 36.2001 229.792 36.0701 229.802 35.9001C229.802 35.7201 229.652 35.5801 229.482 35.5801C229.312 35.5801 229.172 35.7201 229.172 35.8901C229.172 35.8901 229.172 35.8901 229.172 35.9001C229.172 36.0601 229.302 36.2001 229.472 36.2001C229.472 36.2001 229.472 36.2001 229.482 36.2001Z" fill="#313945"/>
<path d="M231.74 36.1503C231.56 36.1103 231.39 36.2303 231.36 36.4003C231.33 36.5703 231.44 36.7503 231.61 36.7803C231.65 36.7803 231.7 36.7803 231.74 36.7803C231.91 36.7803 232.05 36.6403 232.05 36.4703C232.05 36.4703 232.05 36.4703 232.05 36.4603C232.05 36.2903 231.91 36.1503 231.74 36.1503Z" fill="#313945"/>
<path d="M233.631 31.5998C233.631 31.7698 233.771 31.9198 233.941 31.9198C234.121 31.9198 234.261 31.7698 234.261 31.5998C234.251 31.4298 234.101 31.2998 233.941 31.2998C233.771 31.2998 233.641 31.4298 233.631 31.5998Z" fill="#313945"/>
<path d="M232.211 30.59C232.391 30.63 232.561 30.51 232.591 30.34C232.631 30.16 232.511 29.99 232.341 29.96C232.301 29.96 232.251 29.96 232.211 29.96C232.031 30 231.921 30.17 231.961 30.34C231.991 30.47 232.091 30.57 232.211 30.59Z" fill="#313945"/>
<path d="M229.081 41.7702C229.081 41.6002 228.951 41.4502 228.781 41.4502C228.611 41.4502 228.461 41.5802 228.461 41.7502C228.461 41.9202 228.591 42.0702 228.761 42.0702C228.761 42.0702 228.761 42.0702 228.771 42.0702C228.941 42.0702 229.071 41.9402 229.081 41.7702Z" fill="#313945"/>
<path d="M246.172 37.3004C246.312 37.3004 246.352 37.3004 246.402 37.4404H246.492L246.402 37.2504L246.962 37.0204V36.9004L246.182 37.2504V37.3004H246.172Z" fill="#313945"/>
<path d="M245.991 36.31H245.891L245.981 36.74H246.461V36.57C246.401 36.55 246.351 36.5 246.331 36.44C246.311 36.34 246.371 36.23 246.471 36.21C246.571 36.18 246.671 36.23 246.701 36.33C246.701 36.33 246.701 36.33 246.701 36.34C246.701 36.44 246.701 36.52 246.601 36.55V36.67C246.741 36.63 246.811 36.48 246.771 36.35C246.751 36.19 246.601 36.09 246.451 36.11C246.441 36.11 246.421 36.11 246.411 36.11C246.261 36.14 246.171 36.29 246.201 36.43C246.201 36.43 246.201 36.44 246.201 36.45C246.221 36.51 246.251 36.56 246.301 36.59H246.071L245.991 36.32V36.31Z" fill="#313945"/>
<path d="M246.04 35.6097C246.14 35.6097 246.23 35.5497 246.26 35.4497V35.2697C246.26 35.1297 246.26 35.0897 246.43 35.0997C246.6 35.1097 246.56 35.2597 246.55 35.3297C246.54 35.3997 246.55 35.5597 246.33 35.5497V35.6697C246.42 35.6897 246.51 35.6597 246.56 35.5897C246.62 35.5197 246.66 35.4397 246.66 35.3397C246.66 35.1797 246.66 34.9897 246.43 34.9797C246.32 34.9597 246.22 35.0397 246.2 35.1497L246.11 35.3997C246.11 35.4597 246.05 35.4997 245.99 35.4997C245.86 35.4997 245.85 35.3597 245.86 35.2797C245.86 35.1797 245.93 35.0897 246.03 35.0897C246.03 35.0897 246.05 35.0897 246.06 35.0897V34.9697C245.96 34.9697 245.79 34.9697 245.76 35.2897C245.73 35.4297 245.82 35.5697 245.96 35.5997C245.99 35.5997 246.02 35.5997 246.05 35.5997L246.04 35.6097Z" fill="#313945"/>
<path d="M246.93 34.2903L246.84 34.2603L246.67 34.7603L246.39 34.6603L246.54 34.2203L246.45 34.1803L246.3 34.6403L246.05 34.5503L246.21 34.0703L246.1 34.0303L245.91 34.6403L246.74 34.9003L246.93 34.2903Z" fill="#313945"/>
<path d="M247.05 34.1098L246.74 33.8998L246.88 33.6798C246.96 33.5598 246.93 33.3998 246.81 33.3198C246.81 33.3198 246.79 33.3098 246.79 33.2998C246.74 33.2698 246.67 33.2698 246.62 33.2998C246.55 33.3198 246.49 33.3698 246.45 33.4298L246.26 33.7498L246.99 34.1998L247.05 34.0998V34.1098ZM246.4 33.6798L246.53 33.4898C246.53 33.4898 246.61 33.3998 246.66 33.4098C246.72 33.4498 246.73 33.5298 246.69 33.5898C246.69 33.5898 246.67 33.6098 246.66 33.6198L246.56 33.7998L246.4 33.6798Z" fill="#313945"/>
<path d="M247.001 32.8698L247.561 33.3998L247.621 33.3098L247.091 32.7898L247.301 32.5698L247.211 32.5098L246.731 33.0198L246.791 33.0798L247.001 32.8698Z" fill="#313945"/>
<path d="M248.01 32.9996L247.49 32.3096L247.4 32.3796L247.92 33.0696L248.01 32.9996Z" fill="#313945"/>
<path d="M248.73 32.5903L248.67 32.5103L248.21 32.7403L248.09 32.5003L248.49 32.2603L248.45 32.1703L248.03 32.3903L247.91 32.1603L248.36 31.9203L248.32 31.8203L247.75 32.1203L248.15 32.8903L248.73 32.5903Z" fill="#313945"/>
<path d="M248.931 32.5298L248.811 32.0098C248.811 31.9398 248.811 31.8698 248.811 31.7998L249.211 32.4598H249.311L249.401 31.7098C249.401 31.7798 249.401 31.8498 249.401 31.9198L249.501 32.4098H249.621L249.441 31.5498H249.271L249.191 32.3298L248.791 31.6698H248.621L248.811 32.5098H248.911L248.931 32.5298Z" fill="#313945"/>
<path d="M250.131 32.3903C250.321 32.3903 250.441 32.3003 250.441 32.1603C250.441 32.0603 250.381 31.9603 250.281 31.9403C250.351 31.9103 250.401 31.8403 250.401 31.7603C250.401 31.6403 250.401 31.5403 250.181 31.5303H249.801V32.4003H250.121L250.131 32.3903ZM249.941 31.6203H250.121C250.251 31.6203 250.291 31.6203 250.291 31.7403C250.291 31.8603 250.231 31.8603 250.111 31.8403H249.921L249.951 31.6203H249.941ZM250.121 32.0003C250.211 32.0003 250.301 32.0003 250.301 32.1403C250.301 32.2803 250.301 32.2803 250.121 32.2803H249.901V32.0103H250.121V32.0003Z" fill="#313945"/>
<path d="M250.742 32.1096L251.012 32.1896C251.152 32.1896 251.142 32.3096 251.132 32.3796C251.122 32.4496 251.122 32.5196 251.132 32.5896H251.262V32.1596C251.262 32.1596 251.402 32.1596 251.432 31.9896C251.462 31.8196 251.432 31.7296 251.222 31.6896L250.832 31.5596L250.602 32.3996H250.722L250.752 32.0996L250.742 32.1096ZM250.882 31.7496L251.132 31.8396C251.132 31.8396 251.272 31.8396 251.222 31.9996C251.172 32.1596 251.122 32.0996 251.042 32.0896L250.792 32.0096L250.882 31.7496Z" fill="#313945"/>
<path d="M251.861 33.0004L251.911 32.9204L251.471 32.6504L251.601 32.4004L252.011 32.6404L252.081 32.5604L251.661 32.3104L251.791 32.0904L252.231 32.3504L252.301 32.2504L251.741 31.9404L251.311 32.6804L251.861 33.0004Z" fill="#313945"/>
<path d="M252.4 33.5505C252.56 33.7105 252.82 33.7105 252.98 33.5505C253.15 33.4305 253.2 33.2005 253.09 33.0305C253.09 33.0205 253.07 33.0105 253.06 32.9905L252.84 32.7305L252.18 33.2805L252.4 33.5505ZM252.98 33.0705C253.07 33.1905 253.06 33.3005 252.98 33.4505C252.9 33.6005 252.68 33.5705 252.59 33.4505L252.46 33.2905L252.91 32.9005L252.97 33.0705H252.98Z" fill="#313945"/>
<path d="M252.991 34.5003L253.081 34.4603L252.841 33.9903L253.101 33.8603L253.321 34.2903L253.421 34.2403L253.191 33.8203L253.441 33.6903L253.661 34.1503L253.771 34.1103L253.471 33.5303L252.691 33.9203L252.991 34.5003Z" fill="#313945"/>
<path d="M253.709 35.0496L253.109 35.1296V35.2496L253.949 35.1196V35.0396C253.819 35.0396 253.809 35.0396 253.769 34.8496H253.679L253.709 35.0596V35.0496Z" fill="#313945"/>
<path d="M253.791 35.56C253.711 35.54 253.641 35.59 253.621 35.67C253.591 35.57 253.501 35.5 253.401 35.5C253.331 35.5 253.261 35.53 253.211 35.58C253.171 35.64 253.141 35.71 253.151 35.79C253.131 35.92 253.221 36.05 253.351 36.07C253.361 36.07 253.381 36.07 253.391 36.07C253.481 36.09 253.581 36.04 253.611 35.95C253.631 36.02 253.701 36.07 253.781 36.07C253.881 36.07 254.011 36.07 254.011 35.81C254.031 35.69 253.951 35.58 253.831 35.55C253.821 35.55 253.801 35.55 253.791 35.55V35.56ZM253.391 35.96C253.261 35.96 253.251 35.86 253.251 35.79C253.251 35.72 253.341 35.65 253.411 35.65C253.481 35.65 253.541 35.7 253.551 35.77C253.551 35.79 253.551 35.8 253.551 35.82C253.551 35.89 253.511 35.96 253.431 35.96C253.431 35.96 253.411 35.96 253.401 35.96H253.391ZM253.791 35.96C253.711 35.95 253.661 35.88 253.661 35.8C253.661 35.72 253.661 35.68 253.791 35.68C253.921 35.68 253.911 35.68 253.891 35.81C253.871 35.94 253.831 35.95 253.791 35.95V35.96Z" fill="#313945"/>
<path d="M253.661 36.2599V36.3799C253.661 36.3799 253.851 36.3799 253.821 36.5899C253.791 36.7999 253.691 36.7499 253.641 36.7199C253.591 36.6899 253.501 36.6199 253.471 36.5299V36.3999C253.431 36.2699 253.321 36.1599 253.181 36.1299L253.041 36.6899H253.131L253.251 36.2199C253.311 36.2599 253.361 36.3299 253.371 36.3999V36.4999C253.371 36.6399 253.451 36.7599 253.591 36.7899C253.731 36.8199 253.871 36.7299 253.901 36.5899C253.901 36.5899 253.901 36.5899 253.901 36.5799C253.921 36.4299 253.811 36.2899 253.671 36.2699L253.661 36.2599Z" fill="#313945"/>
<path d="M253.489 37.0702L253.409 37.2502L252.859 36.9902V37.0902L253.639 37.4502V37.3702C253.539 37.2802 253.549 37.2302 253.639 37.0802L253.479 37.0502L253.489 37.0702Z" fill="#313945"/>
<path d="M248.859 40.1303H248.949L249.589 37.5303H249.499L248.879 40.1303H248.869H248.859Z" fill="#313945"/>
<path d="M248.771 39.0004H248.861L249.391 37.4404H249.301L248.781 38.9604V39.0004H248.771Z" fill="#313945"/>
<path d="M247.871 39.9604H247.951L249.251 37.3604H249.161L247.941 39.9604H247.881H247.871Z" fill="#313945"/>
<path d="M247.67 39.5401L248.97 37.3301H248.89L247.59 39.5201H247.67V39.5401Z" fill="#313945"/>
<path d="M246.84 39.5597H246.92L248.82 37.1396H248.74L246.84 39.5597Z" fill="#313945"/>
<path d="M246.971 38.9596L248.651 37.0996L246.961 38.9696H246.971V38.9596Z" fill="#313945"/>
<path d="M248.511 36.96L246.031 39.14V39.22L248.501 37.04V36.96H248.511Z" fill="#313945"/>
<path d="M248.361 36.8105V36.7305L247.061 37.6505V37.7305L248.361 36.8105Z" fill="#313945"/>
<path d="M248.252 36.6398V36.5498L247.332 37.0698V37.1498L248.252 36.6398Z" fill="#313945"/>
<path d="M247.15 36.8097V36.8997L248.11 36.4697V36.3896L247.15 36.8097Z" fill="#313945"/>
<path d="M247.041 36.5102L247.081 36.6002L248.051 36.2902L248.081 36.2802L248.051 36.2002L247.041 36.5102Z" fill="#313945"/>
<path d="M248.03 36.09C248.03 36.09 248.03 36.03 248.03 36L246.99 36.22V36.31L248.03 36.09Z" fill="#313945"/>
<path d="M246.91 35.9098V35.9998L247.98 35.8998C247.98 35.8998 247.98 35.8298 247.98 35.7998L246.91 35.9198V35.9098Z" fill="#313945"/>
<path d="M246.91 35.3996L247.96 35.4896V35.3996L246.92 35.3096V35.3996H246.91Z" fill="#313945"/>
<path d="M246.949 35.0705L247.999 35.3005V35.2105L246.949 34.9805V35.0705Z" fill="#313945"/>
<path d="M247.031 34.78L248.031 35.12C248.031 35.12 248.031 35.06 248.031 35.03L247.031 34.71V34.79V34.78Z" fill="#313945"/>
<path d="M247.15 34.4004V34.4904L248.14 34.9104V34.8304L247.18 34.4104H247.15V34.4004Z" fill="#313945"/>
<path d="M247.26 34.2099L248.2 34.7299V34.6499L247.25 34.1299V34.2099H247.26Z" fill="#313945"/>
<path d="M247.43 33.9799L248.29 34.5899V34.5299L247.43 33.9199V33.9799Z" fill="#313945"/>
<path d="M247.699 33.6396L248.489 34.3297L247.709 33.6497H247.699V33.6396Z" fill="#313945"/>
<path d="M247.919 33.4199H247.859L248.569 34.1699H248.649L247.939 33.4299H247.929L247.919 33.4199Z" fill="#313945"/>
<path d="M248.15 33.24H248.09L248.74 34.06L248.8 34L248.18 33.21L248.15 33.25V33.24Z" fill="#313945"/>
<path d="M248.451 33.0498H248.371L248.891 33.9298H248.971L248.461 33.0598H248.451V33.0498Z" fill="#313945"/>
<path d="M248.731 32.9397H248.641L249.081 33.8597H249.161L248.741 32.9597V32.9297L248.731 32.9397Z" fill="#313945"/>
<path d="M249.09 32.8303H249L249.34 33.7903H249.43L249.09 32.8503V32.8203V32.8303Z" fill="#313945"/>
<path d="M249.34 32.7402H249.25L249.46 33.7502H249.56L249.35 32.7502H249.34V32.7402Z" fill="#313945"/>
<path d="M249.67 33.7399H249.76L249.66 32.6699H249.57L249.67 33.7399Z" fill="#313945"/>
<path d="M249.949 32.6797H249.859V33.7097H249.949V32.6797Z" fill="#313945"/>
<path d="M250.051 33.7304H250.141L250.241 32.6904H250.151L250.051 33.7304Z" fill="#313945"/>
<path d="M250.391 33.78L250.601 32.75H250.511L250.301 33.78H250.391Z" fill="#313945"/>
<path d="M250.859 32.8604H250.769L250.449 33.8204H250.539L250.859 32.8703V32.8604Z" fill="#313945"/>
<path d="M251.141 32.98H251.051L250.631 33.9H250.711L251.131 32.96H251.141V32.98Z" fill="#313945"/>
<path d="M251.311 33.0498L250.821 33.9398L250.801 33.9498L250.901 33.9998L251.391 33.1098L251.311 33.0498Z" fill="#313945"/>
<path d="M250.971 34.0397H251.051L251.671 33.2197H251.591L250.971 34.0397Z" fill="#313945"/>
<path d="M251.131 34.1799L251.191 34.2499L251.881 33.4999L251.911 33.4799L251.831 33.4199L251.131 34.1799Z" fill="#313945"/>
<path d="M252.04 33.6371L251.266 34.3311L251.326 34.3981L252.1 33.7041L252.04 33.6371Z" fill="#313945"/>
<path d="M251.43 34.4804V34.5404L252.25 33.9403V33.8604L251.43 34.4704V34.4804Z" fill="#313945"/>
<path d="M251.531 34.6301C251.531 34.6301 251.531 34.6901 251.531 34.7201L252.431 34.2101V34.1201L251.531 34.6301Z" fill="#313945"/>
<path d="M251.691 34.8202V34.9102L252.631 34.4902V34.4102L251.691 34.8102V34.8202Z" fill="#313945"/>
<path d="M251.691 35.0202C251.691 35.0202 251.691 35.0802 251.691 35.1102L252.651 34.7902V34.7002L251.691 35.0202Z" fill="#313945"/>
<path d="M251.691 35.1997C251.691 35.1997 251.691 35.2597 251.691 35.2897L252.701 35.0597V34.9697L251.691 35.1997Z" fill="#313945"/>
<path d="M251.771 35.3895C251.771 35.3895 251.771 35.4495 251.771 35.4795L252.771 35.3895V35.2695L251.771 35.3895Z" fill="#313945"/>
<path d="M251.791 35.6398H252.821V35.5498H251.791V35.6398Z" fill="#313945"/>
<path d="M251.771 35.9805C251.771 35.9805 251.771 36.0405 251.771 36.0705L252.761 36.3005V36.2105L251.771 35.9805Z" fill="#313945"/>
<path d="M252.79 35.9903V35.9003L251.76 35.7803C251.76 35.7803 251.76 35.8203 251.76 35.8403L252.76 35.9603L252.79 35.9903Z" fill="#313945"/>
<path d="M252.651 36.5697V36.4797L251.691 36.1797C251.691 36.1797 251.691 36.2297 251.691 36.2597L252.631 36.5697H252.661H252.651Z" fill="#313945"/>
<path d="M251.691 36.3701V36.4601L252.601 36.8601V36.7701L251.691 36.3701Z" fill="#313945"/>
<path d="M251.521 36.5703L252.381 37.0803V36.9903L251.561 36.5703H251.521Z" fill="#313945"/>
<path d="M251.4 36.7797L252.7 37.7197V37.6397L251.4 36.7197C251.4 36.7197 251.43 36.7597 251.4 36.7797Z" fill="#313945"/>
<path d="M251.34 36.8701V36.9501L253.64 39.1701V39.1101L251.25 36.9401L251.34 36.8801V36.8701Z" fill="#313945"/>
<path d="M251.131 37.0801L252.741 38.9401H252.821L251.211 37.0801H251.131Z" fill="#313945"/>
<path d="M250.99 37.2002L252.81 39.6202L252.89 39.5602L251.06 37.1602L251 37.2102L250.99 37.2002Z" fill="#313945"/>
<path d="M250.791 37.3098L252.091 39.4798H252.171L250.871 37.2998H250.791V37.3098Z" fill="#313945"/>
<path d="M250.621 37.4102L251.791 40.0102H251.881L250.701 37.4102H250.621Z" fill="#313945"/>
<path d="M250.391 37.4704L250.881 38.9904H250.971L250.451 37.4404L250.391 37.4704Z" fill="#313945"/>
<path d="M250.23 37.5195L250.84 40.1195H250.93L250.32 37.5195H250.23Z" fill="#313945"/>
<path d="M241.1 54.7598C241.1 54.7598 240.8 55.1098 240.97 55.3998C241.13 55.5998 241.43 55.6298 241.63 55.4698C241.66 55.4498 241.68 55.4298 241.7 55.3998C241.7 55.3998 240.99 55.4298 241.1 54.7598Z" fill="#313945"/>
<path d="M258.18 55.4095C258.34 55.6095 258.64 55.6395 258.84 55.4795C258.87 55.4595 258.89 55.4395 258.91 55.4095C259.08 55.1195 258.78 54.7695 258.78 54.7695C258.83 55.4195 258.18 55.4095 258.18 55.4095Z" fill="#313945"/>
<path d="M243.771 54.4201L243.611 54.3301L243.231 54.9701L243.391 55.0601C243.541 55.1701 243.751 55.1401 243.861 54.9901C243.871 54.9701 243.881 54.9501 243.891 54.9301C244.001 54.7801 243.971 54.5701 243.821 54.4601C243.801 54.4501 243.781 54.4401 243.761 54.4301L243.771 54.4201Z" fill="#313945"/>
<path d="M245.009 55.0704C244.829 54.9804 244.609 55.0604 244.519 55.2404C244.519 55.2404 244.519 55.2504 244.519 55.2604C244.429 55.4504 244.499 55.6704 244.689 55.7704C244.879 55.8604 245.109 55.7704 245.199 55.5904C245.289 55.4104 245.199 55.1704 245.019 55.0804L245.009 55.0704Z" fill="#313945"/>
<path d="M249.339 56.1899C249.139 56.1799 248.969 56.3299 248.949 56.5299C248.949 56.5299 248.949 56.5299 248.949 56.5399C248.949 56.7399 249.109 56.8999 249.309 56.8999C249.509 56.8999 249.669 56.7399 249.669 56.5399C249.669 56.3499 249.519 56.1999 249.329 56.1899H249.339Z" fill="#313945"/>
<path d="M252.841 56.2404H252.631L252.711 56.5604H252.931C253.011 56.5404 253.071 56.4604 253.051 56.3804C253.051 56.3804 253.051 56.3604 253.051 56.3504C253.031 56.2704 252.951 56.2104 252.871 56.2304C252.871 56.2304 252.851 56.2304 252.841 56.2304V56.2404Z" fill="#313945"/>
<path d="M252.911 55.9401C252.891 55.8601 252.811 55.8201 252.731 55.8401H252.541L252.621 56.1301H252.811C252.881 56.1301 252.931 56.0601 252.921 55.9901C252.921 55.9801 252.921 55.9601 252.911 55.9501V55.9401Z" fill="#313945"/>
<path d="M254.29 55.3495H254L254.13 55.6895L254.31 55.6095C254.4 55.5795 254.45 55.4895 254.42 55.3995V55.3795C254.38 55.3495 254.34 55.3395 254.29 55.3495Z" fill="#313945"/>
<path d="M255.582 54.8898V55.2098L255.852 55.0698L255.582 54.8498V54.7598C255.582 54.7598 255.582 54.8498 255.582 54.8898Z" fill="#313945"/>
<path d="M258.362 54.9498L258.052 54.8298C258.272 54.7498 258.502 54.7298 258.732 54.7698L258.352 54.4298C257.572 53.7298 256.442 53.5798 255.512 54.0698C252.082 56.1998 247.742 56.1998 244.312 54.0698C243.382 53.5898 242.252 53.7298 241.482 54.4298L241.102 54.7698C241.332 54.7298 241.562 54.7498 241.782 54.8298L241.472 54.9498C241.872 55.1098 241.702 55.3998 241.702 55.3998L242.182 54.9698C242.912 55.2798 243.622 55.6298 244.312 56.0398C246.022 56.9998 247.952 57.4898 249.912 57.4598C251.872 57.4998 253.802 57.0198 255.512 56.0598C256.202 55.6598 256.912 55.2998 257.642 54.9898L258.132 55.4198C258.132 55.4198 257.962 55.1098 258.362 54.9498ZM243.332 55.1598L243.042 54.9998L243.552 54.1398L243.842 54.3098C244.082 54.4298 244.182 54.7298 244.062 54.9698C243.942 55.2098 243.642 55.3098 243.402 55.1898C243.382 55.1798 243.362 55.1698 243.342 55.1498L243.332 55.1598ZM244.032 55.5598H243.902L244.372 54.6898L244.502 54.7498L244.032 55.5598ZM244.632 55.8698C244.382 55.7498 244.262 55.4498 244.382 55.1898C244.502 54.9298 244.802 54.8198 245.062 54.9398C245.312 55.0598 245.432 55.3598 245.312 55.6098C245.202 55.8598 244.912 55.9798 244.662 55.8698C244.662 55.8698 244.642 55.8698 244.632 55.8598V55.8698ZM246.012 55.5698C245.972 55.4998 245.912 55.4498 245.842 55.4098C245.762 55.3698 245.672 55.3898 245.632 55.4698C245.632 55.4698 245.632 55.4798 245.632 55.4898C245.552 55.6698 246.022 55.7998 245.902 56.0998C245.832 56.2398 245.662 56.3098 245.512 56.2398C245.382 56.2198 245.272 56.1498 245.202 56.0498L245.302 55.9898C245.342 56.0798 245.422 56.1498 245.512 56.1798C245.592 56.2198 245.682 56.1798 245.722 56.0998C245.802 55.9098 245.332 55.7798 245.452 55.4898C245.512 55.3498 245.682 55.2798 245.832 55.3398C245.832 55.3398 245.832 55.3398 245.842 55.3398C245.942 55.3698 246.022 55.4398 246.062 55.5298L246.022 55.5598L246.012 55.5698ZM246.832 56.6698C246.632 56.6298 246.502 56.4398 246.542 56.2498C246.542 56.2398 246.542 56.2298 246.542 56.2198L246.712 55.6098H246.842L246.672 56.2198C246.672 56.3598 246.772 56.4898 246.912 56.4998C247.022 56.4998 247.122 56.4498 247.162 56.3498L247.322 55.7398H247.462L247.292 56.3598C247.282 56.5498 247.112 56.6998 246.922 56.6898C246.892 56.6898 246.852 56.6898 246.822 56.6698H246.832ZM248.232 56.9598H248.102L247.792 56.2198C247.792 56.1598 247.792 56.1098 247.792 56.0498C247.792 56.0498 247.792 56.1498 247.792 56.1898L247.672 56.8298H247.542L247.712 55.8598H247.852L248.162 56.5698L248.222 56.7298C248.222 56.7298 248.222 56.6298 248.222 56.5898L248.342 55.9498H248.472L248.222 56.9598H248.232ZM248.612 56.9598H248.472L248.592 55.9698H248.732L248.612 56.9598ZM249.292 57.0198C249.022 57.0198 248.802 56.7898 248.812 56.5198C248.812 56.5198 248.812 56.4998 248.812 56.4898C248.822 56.2098 249.062 55.9998 249.342 56.0098C249.612 56.0098 249.832 56.2398 249.822 56.5098C249.822 56.5098 249.822 56.5298 249.822 56.5398C249.842 56.8098 249.632 57.0498 249.352 57.0598C249.332 57.0598 249.312 57.0598 249.282 57.0598V57.0198H249.292ZM250.592 57.0198L250.122 56.3998L250.042 56.2598C250.042 56.2598 250.042 56.3598 250.042 56.3998V57.0498H249.902V56.0598H250.042L250.492 56.6798L250.582 56.8098C250.582 56.8098 250.582 56.7198 250.582 56.6798V56.0298H250.722V57.0198H250.582H250.592ZM251.512 56.9298L251.412 56.0498H251.552L251.682 56.9098L252.122 56.8498V56.9698L251.512 56.9398V56.9298ZM252.202 56.8098L252.012 55.8398H252.142L252.352 56.7998H252.212L252.202 56.8098ZM252.912 56.6498L252.572 56.7398L252.312 55.7798L252.652 55.6898C252.792 55.6398 252.932 55.7098 252.982 55.8498C252.982 55.8498 252.982 55.8598 252.982 55.8698C253.022 55.9398 253.022 56.0298 252.982 56.0998C253.092 56.0998 253.192 56.1798 253.202 56.2898C253.242 56.4798 253.122 56.6098 252.982 56.6698L252.902 56.6398L252.912 56.6498ZM253.402 56.5098L253.092 55.5698L253.642 55.3898V55.5098L253.222 55.6398L253.322 55.9398L253.662 55.8198V55.9398L253.342 56.0598L253.432 56.3598L253.872 56.2198V56.3398L253.402 56.5198V56.5098ZM254.702 56.0598L254.362 55.7698L254.172 55.8498L254.312 56.2098H254.182L253.822 55.2998L254.092 55.1798H254.272C254.392 55.1798 254.492 55.2598 254.532 55.3698C254.592 55.4698 254.592 55.5898 254.532 55.6798L254.872 55.9698L254.702 56.0498V56.0598ZM255.182 55.8398L254.822 55.0598L254.512 55.1998V55.0998L255.202 54.7598V54.8598L254.892 54.9998L255.272 55.7898L255.192 55.8298L255.182 55.8398ZM256.172 55.3298L255.952 55.1198L255.632 55.2998V55.5998H255.502L255.342 54.5598L255.472 54.4998L256.252 55.1998L256.172 55.3298ZM256.682 55.0298L256.412 55.1998L255.892 54.3698L256.162 54.1898C256.372 54.0398 256.662 54.0798 256.812 54.2898C256.822 54.3098 256.832 54.3298 256.842 54.3498C257.002 54.5398 256.982 54.8298 256.792 54.9898C256.752 55.0198 256.712 55.0498 256.672 55.0598V55.0298H256.682Z" fill="#313945"/>
<path d="M256.211 54.3297L256.051 54.4197L256.451 55.0597L256.611 54.9597C256.771 54.8697 256.831 54.6697 256.751 54.4997C256.751 54.4797 256.731 54.4697 256.721 54.4497C256.641 54.2797 256.431 54.2197 256.271 54.2997C256.251 54.2997 256.231 54.3197 256.221 54.3297H256.211Z" fill="#313945"/>
<path d="M326.94 43.6605H326.44C326.23 41.8005 325.73 41.5905 324.65 41.5905H320.21V47.1805C320.21 48.3905 320.66 48.6205 321.63 48.6205H325.67C327.51 48.6205 328.06 47.9105 328.72 45.6505H329.19L328.77 49.5605H314.83V49.0605H315.57C317.67 49.0605 318.04 48.4805 318.04 46.9105V35.8305C318.04 34.3605 317.7 33.7305 315.94 33.7305H315.36V33.2305H327.97L328.18 36.8805H327.71C327.37 34.6505 326.71 34.1705 325.77 34.1705H320.23V40.6305H324.93C325.88 40.6305 326.32 40.1805 326.45 38.6605H326.95V43.6505L326.94 43.6605Z" fill="#313945"/>
<path d="M342.621 49.5702H330.881V49.0702H331.751C332.961 49.0702 333.401 48.6802 333.401 47.3402V35.7102C333.401 34.3202 332.981 33.7402 331.331 33.7402H330.961V33.2402H338.711V33.7402H337.741C336.031 33.7402 335.591 33.9202 335.591 35.5502V47.6602C335.591 48.3702 335.881 48.6302 336.641 48.6302H340.501C342.051 48.6302 342.521 48.0302 344.181 45.7402H344.651L342.631 49.5702H342.621Z" fill="#313945"/>
<path d="M353.799 45.5798C354.349 47.9198 356.189 49.2798 358.239 49.2798C359.999 49.2798 361.859 48.2598 361.859 46.1798C361.859 42.3998 353.429 41.2398 353.429 36.6498C353.429 34.4698 355.429 32.8398 358.099 32.8398C360.309 32.8398 360.749 33.4998 361.669 33.4998C361.879 33.4998 361.989 33.4498 362.139 33.2398H362.559L363.009 36.5698H362.559C361.819 34.6798 360.139 33.4698 358.329 33.4698C356.519 33.4698 355.389 34.4698 355.389 35.9398C355.389 39.6698 363.819 40.6698 363.819 45.4998C363.819 48.0698 361.539 49.9898 358.459 49.9898C357.019 49.9898 355.179 49.2798 354.809 49.2798C354.569 49.2798 354.389 49.4098 354.279 49.5698H353.829L353.279 45.5798H353.779H353.799Z" fill="#313945"/>
<path d="M370.679 42.3201L369.159 46.4401C368.979 46.9401 368.629 47.7301 368.629 48.0901C368.629 48.8001 369.309 49.0601 370.759 49.0601H371.179V49.5601H365.109V49.0601C366.819 49.0301 367.109 48.7501 367.949 46.4601L372.729 33.4101L372.489 32.8301H374.769L380.259 47.4001C380.789 48.7901 381.339 49.0501 382.649 49.0501V49.5501H375.429V49.0501H376.109C377.609 49.0501 378.159 48.8901 378.159 48.1601C378.159 47.7401 377.979 47.3501 377.869 47.0801L376.109 42.3001H370.669L370.679 42.3201ZM373.359 35.0501L371.129 41.1701H375.669L373.359 35.0501Z" fill="#313945"/>
<path d="M395.051 49.5702H383.311V49.0702H384.181C385.391 49.0702 385.831 48.6802 385.831 47.3402V35.7102C385.831 34.3202 385.411 33.7402 383.761 33.7402H383.391V33.2402H391.141V33.7402H390.171C388.461 33.7402 388.021 33.9202 388.021 35.5502V47.6602C388.021 48.3702 388.311 48.6302 389.071 48.6302H392.931C394.481 48.6302 394.951 48.0302 396.611 45.7402H397.081L395.061 49.5702H395.051Z" fill="#313945"/>
<path d="M403.04 49.9897L397.34 35.7797C396.68 34.1297 396.37 33.7297 394.77 33.7297V33.2297H401.99V33.7297C399.57 33.7797 399 34.3297 399.5 35.5397L404.23 47.2997L408.38 36.4497C408.67 35.7097 408.83 35.1897 408.83 34.8197C408.83 34.0297 408.17 33.7197 406.39 33.7197V33.2197H412.48V33.7197C411.11 33.7197 410.4 34.3497 409.77 35.9797L404.359 49.9797H403.049L403.04 49.9897Z" fill="#313945"/>
<path d="M415.769 42.3201L414.249 46.4401C414.069 46.9401 413.719 47.7301 413.719 48.0901C413.719 48.8001 414.399 49.0601 415.849 49.0601H416.269V49.5601H410.199V49.0601C411.909 49.0301 412.199 48.7501 413.039 46.4601L417.819 33.4101L417.579 32.8301H419.859L425.349 47.4001C425.879 48.7901 426.429 49.0501 427.739 49.0501V49.5501H420.519V49.0501H421.199C422.699 49.0501 423.249 48.8901 423.249 48.1601C423.249 47.7401 423.069 47.3501 422.959 47.0801L421.199 42.3001H415.759L415.769 42.3201ZM418.449 35.0501L416.219 41.1701H420.759L418.449 35.0501Z" fill="#313945"/>
<path d="M430.79 35.8602C430.79 34.1502 430.34 33.7302 428.79 33.7302H428.26V33.2302C429.23 33.1802 430.52 33.1302 431.96 33.0702C433.4 33.0202 435.01 32.9902 436.37 32.9902C443.3 32.9902 446.37 36.5102 446.37 40.8402C446.37 44.8102 443.3 49.5602 436.65 49.5602H428.25V49.0602H428.7C430.12 49.0602 430.77 48.6702 430.77 47.1402V35.8502L430.79 35.8602ZM432.97 47.6202C432.97 48.7002 433.05 49.0602 435.12 49.0602C438.64 49.0602 440.11 48.5602 441.74 46.9302C442.71 45.9802 443.92 43.9602 443.92 41.2602C443.92 39.3202 443.37 37.1602 441.82 35.6102C440.61 34.4002 438.75 33.4802 435.07 33.4802C433.99 33.4802 433.28 33.5602 432.97 33.5802V47.6002V47.6202Z" fill="#313945"/>
<path d="M458.699 49.9898C453.549 49.9898 449.219 46.6798 449.219 41.7698C449.219 36.5398 453.239 32.8398 458.829 32.8398C463.789 32.8398 468.049 36.2298 468.049 40.9498C468.049 46.2498 463.799 49.9798 458.699 49.9798V49.9898ZM458.149 33.4998C453.529 33.4998 451.689 37.8098 451.689 40.9598C451.689 45.8698 455.019 49.3398 459.249 49.3398C463.479 49.3398 465.579 45.5598 465.579 41.8298C465.579 36.9498 462.479 33.5098 458.149 33.5098V33.4998Z" fill="#313945"/>
<path d="M474.671 47.1002C474.671 48.6802 475.301 49.0702 476.771 49.0702H477.371V49.5702H469.941V49.0702H470.391C471.941 49.0702 472.491 48.6502 472.491 46.8902V35.8302C472.491 34.2002 472.041 33.7302 470.521 33.7302H469.941V33.2302C470.571 33.2302 472.171 33.1302 473.251 33.0702C474.331 33.0202 474.851 32.9902 476.561 32.9902C481.421 32.9902 483.601 34.9902 483.601 37.6602C483.601 39.6302 482.261 41.2802 480.111 41.9102C481.081 42.6702 481.871 43.4102 483.101 44.6402L485.171 46.7102C486.721 48.2602 488.321 49.2302 490.341 49.3602V49.8302C485.741 50.0402 484.561 49.0402 482.231 46.7102L480.501 44.9802C479.341 43.8202 478.431 43.0602 477.791 42.6402C477.131 42.6702 476.711 42.6902 476.001 42.6902C475.421 42.6902 475.081 42.6602 474.661 42.6402V47.0802L474.671 47.1002ZM474.671 42.1602C475.301 42.2402 475.691 42.2102 476.301 42.2102C479.221 42.2102 481.131 40.9802 481.131 37.8202C481.131 35.3802 480.031 33.4902 475.981 33.4902C475.481 33.4902 475.141 33.4902 474.671 33.5402V42.1502V42.1602Z" fill="#313945"/>
</svg>
